<?xml version="1.0" encoding="UTF-8"?>
<!-- Generator: Adobe Illustrator 28.1.0, SVG Export Plug-In . SVG Version: 6.00 Build 0)  -->
<svg xmlns="http://www.w3.org/2000/svg" xmlns:xlink="http://www.w3.org/1999/xlink" version="1.1" id="Layer_1" x="0px" y="0px" width="121px" height="121px" viewBox="0 0 121 121" style="enable-background:new 0 0 121 121;" xml:space="preserve">
<style type="text/css">
	.st0{fill:#FFFFFF;}
</style>
<g>
	<g>
		<path class="st0" d="M60.5,121C27.1,121,0,93.9,0,60.5C0,27.1,27.1,0,60.5,0S121,27.1,121,60.5C121,93.9,93.9,121,60.5,121z     M60.5,2.1C28.3,2.1,2.1,28.3,2.1,60.5c0,32.2,26.2,58.4,58.4,58.4s58.4-26.2,58.4-58.4C118.9,28.3,92.7,2.1,60.5,2.1z"></path>
	</g>
	<g>
		<g>
			<g>
				<path class="st0" d="M54.9,39h-0.8v3.8h-1V39h-0.8v-1h2.7V39z"></path>
			</g>
			<g>
				<path class="st0" d="M59.5,42.8h-1v-2h-0.7v2h-1V38h1v1.8h0.7V38h1V42.8z"></path>
			</g>
			<g>
				<path class="st0" d="M63.7,42.8h-2.4V38h2.4v1h-1.4v0.8h1v1h-1v0.9h1.4V42.8z"></path>
			</g>
		</g>
		<g>
			<g>
				<path class="st0" d="M44.1,77h-2.4v-4.8h1V76h1.4V77z"></path>
			</g>
			<g>
				<path class="st0" d="M49.1,77H48l-0.1-0.6h-0.9L46.9,77h-1.1l1-4.8H48L49.1,77z M47.7,75.5l-0.3-1.7l-0.3,1.7H47.7z"></path>
			</g>
			<g>
				<path class="st0" d="M55,72.1L54.2,77H53l-0.3-2.5L52.3,77h-1.2l-0.8-4.8h1.1l0.4,3.1l0.3-3.1h1l0.3,3.1l0.4-3.1H55z"></path>
			</g>
			<g>
				<path class="st0" d="M62.1,76.2c0,0.3-0.3,0.7-0.7,0.7h-1.4c-0.3,0-0.7-0.3-0.7-0.7v-3.5c0-0.3,0.3-0.7,0.7-0.7h1.4      c0.3,0,0.7,0.3,0.7,0.7v0.8h-1v-0.5h-0.7v2.7h0.7v-0.5h-0.4v-1h1.4V76.2z"></path>
			</g>
			<g>
				<path class="st0" d="M66.2,75.2l0.5,1.8h-1l-0.4-1.8h-0.2V77H64v-4.8h2c0.3,0,0.7,0.3,0.7,0.7v1.7      C66.8,74.9,66.5,75.1,66.2,75.2z M65.8,74.2v-1h-0.7v1H65.8z"></path>
			</g>
			<g>
				<path class="st0" d="M71.4,76.2c0,0.3-0.3,0.7-0.7,0.7h-1.4c-0.3,0-0.7-0.3-0.7-0.7v-3.5c0-0.3,0.3-0.7,0.7-0.7h1.4      c0.3,0,0.7,0.3,0.7,0.7V76.2z M70.3,75.9v-2.7h-0.7v2.7H70.3z"></path>
			</g>
			<g>
				<path class="st0" d="M76,76.2c0,0.3-0.3,0.7-0.7,0.7H74c-0.4,0-0.7-0.3-0.7-0.7v-4.2h1v3.8H75v-3.8h1V76.2z"></path>
			</g>
			<g>
				<path class="st0" d="M80.7,74.5c0,0.3-0.3,0.7-0.7,0.7h-1V77h-1v-4.8h2c0.3,0,0.7,0.3,0.7,0.7V74.5z M79.7,74.2v-1H79v1H79.7z"></path>
			</g>
		</g>
		<g>
			<g>
				<path class="st0" d="M55.5,50.1C55.5,50.1,55.5,50.2,55.5,50.1C55.5,50.2,55.5,50.2,55.5,50.1L55.5,50.1z"></path>
			</g>
			<g>
				<path class="st0" d="M65.6,49.9c0.2-0.1,0.1,0,0.1-0.2h-0.1C65.6,49.9,65.6,49.9,65.6,49.9z"></path>
			</g>
			<g>
				<path class="st0" d="M66.3,49.7L66.3,49.7c0.1-0.1,0.1-0.1,0.1-0.2C66.3,49.5,66.3,49.5,66.3,49.7      C66.2,49.6,66.2,49.7,66.3,49.7z"></path>
			</g>
			<g>
				<path class="st0" d="M42.7,74.4L42.7,74.4C42.7,74.4,42.7,74.4,42.7,74.4L42.7,74.4z"></path>
			</g>
			<g>
				<path class="st0" d="M36.4,55.1C36.4,55.1,36.4,55.2,36.4,55.1L36.4,55.1C36.5,55.1,36.5,55.1,36.4,55.1z"></path>
			</g>
			<g>
				<path class="st0" d="M73.7,49.9c0.1,0,0.1,0,0.2,0.1C73.8,50,73.8,49.9,73.7,49.9C73.7,49.9,73.7,49.9,73.7,49.9z"></path>
			</g>
			<g>
				<path class="st0" d="M77.3,46.9c-0.3,0.3-0.7,1-0.8,1.5c0,0,0,0.1-0.1,0.1l0,0C76.9,48,76.9,47.5,77.3,46.9      C77.4,47,77.3,47,77.3,46.9z"></path>
			</g>
			<g>
				<path class="st0" d="M79.1,47.8c0.2,0.1,0.1,0.2,0.2,0C79.2,47.7,79.2,47.7,79.1,47.8C79.1,47.7,79.1,47.7,79.1,47.8z"></path>
			</g>
			<g>
				<path class="st0" d="M79.5,48c0-0.1,0-0.1,0-0.2c-0.1,0-0.1,0-0.2,0.1C79.4,47.9,79.4,47.9,79.5,48z"></path>
			</g>
			<g>
				<path class="st0" d="M90,60.8c0-0.1,0.1-0.2,0.1-0.3c-0.1,0-0.1,0.1-0.2,0.1C90,60.7,90,60.7,90,60.8z"></path>
			</g>
			<g>
				<path class="st0" d="M89.3,60.1c-0.2,0.2-0.4,0.3-0.6,0.4l0,0c0.3,0.1,0.6-0.1,0.8-0.1c0.1-0.1,0.1-0.1,0.2-0.2      c0-0.1-0.1-0.1-0.1-0.2C89.5,60.1,89.4,60.1,89.3,60.1z"></path>
			</g>
			<g>
				<path class="st0" d="M77.2,50.2c0,0.1,0.1,0.1,0.1,0.2c0.3,0,0.5,0.1,0.6-0.1c-0.3-0.1-0.4-0.2-0.7-0.4      C77.2,49.9,77.2,50.1,77.2,50.2z"></path>
			</g>
			<g>
				<path class="st0" d="M68.1,55c-0.2,0.2-0.1,0.3,0,0.5l0,0c0.1,0,0.2-0.1,0.3-0.1c0-0.2-0.1-0.3-0.1-0.4      C68.1,55.1,68.1,55,68.1,55z"></path>
			</g>
			<g>
				<path class="st0" d="M67.7,54.3c0.1,0,0,0,0.2,0C67.8,54.3,67.8,54.2,67.7,54.3C67.8,54.2,67.7,54.2,67.7,54.3z"></path>
			</g>
			<g>
				<path class="st0" d="M36.2,59.6c0,0.1,0,0.1,0,0.3l0.1-0.1C36.2,59.6,36.4,59.7,36.2,59.6z"></path>
			</g>
			<g>
				<path class="st0" d="M27,63.3c0.1-0.2,0-0.2,0.2-0.2c0.7-0.2,1.3,0.1,1.9,0c0,0,0.1,0.1,0.2,0.3c0-0.1,0-0.2,0-0.3      c0.4-0.1,0.8-0.1,1.4-0.2c0.3-0.8,0.5-1.3,0.8-2.1c-1.9,0-2.7,0-4.6,0c-0.4,0.9-0.7,1.5-1,2.2c0.3,0,0.7,0.1,1,0.1      C26.8,63.3,26.8,63.2,27,63.3z M29.1,61.5c0.1,0,0.1,0,0.2,0.1C29.2,61.6,29.2,61.6,29.1,61.5C29.1,61.6,29.1,61.6,29.1,61.5      C29.1,61.6,29.1,61.6,29.1,61.5z"></path>
			</g>
			<g>
				<path class="st0" d="M38.8,61.8c0-0.1,0.1-0.3,0.1-0.3c0.3-1.2,0.2-2.3-0.3-3c-0.6-0.8-1-1.5-1.4-2.2c0.1,0.8,0,1.8-0.1,2.5      c-0.3,0-0.4,0.2-0.6,0.3c0,0.1,0,0.1,0,0.2c0.2,0,0.1,0,0.2,0.2c-0.2,0.1-0.2,0.4-0.3,0.7c-0.2-0.1-0.3,0-0.5,0.1      c0.2,0.3,0.2,0.9-0.1,0.9c0.3,0.3,0.1,0.5,0.2,0.8l-0.1,0.1c-0.1-0.2-0.1-0.3-0.3-0.2c0,0.1,0,0.1,0,0.2c-0.1,0-0.2,0-0.3,0      c-0.1-0.2-0.2-0.6,0.2-0.4c0-0.1,0.1-0.1,0.1-0.2c0,0,0-0.1-0.1-0.1c-0.1,0-0.1,0-0.2,0c0-0.1,0-0.2,0.1-0.2      c0.3-0.3,0.5-1.8,0.7-2.3c0.2-0.2,0.3-0.4,0.5-0.6c0-0.2-0.1-0.3-0.1-0.4c0.3-1.1,0.3-2.4-0.8-3.1c-0.3-0.1-0.6-0.1-0.8-0.2      c0-0.2-0.1-0.4-0.3-0.6c0,0.1,0,0.2,0,0.3c-0.2,0.2-0.1,0.3-0.3,0.2c-0.2-0.6,0.4-3.6,0.8-3.6H35c0,0.1,0,0.1,0,0.2      c-0.3,0.6,0.2,1.7-0.4,2.1l0,0c0.2,0,0-0.1,0.2,0c0,0.3-0.1,0.6-0.1,0.9c0.3,0.2,0.7,0.3,1,0.5c0.2,0,0.3-0.1,0.4-0.1      c-0.3-0.7-0.8-1.4-1.1-2.2c0.2-0.5,0.3-0.7,0.5-1.2c1,0,1.6,0,2.6,0c-0.3,0.9-0.5,1.4-0.8,2.3c1.6,0,2.5,0,4.1,0      c0.4-1.5,0.7-2.3,1.1-3.7c0.5-1.6-0.2-3-1.5-3c-1.9,0-3,0-4.9,0c-1.1,0-2.3,0.8-3.2,1.9c0,0,0,0,0.1,0c0,0,0,0.1-0.1,0.1      c-0.1,0-0.1,0-0.1,0c-0.3,0.3-0.4,0.6-0.6,0.9c-0.5,1.1-0.8,1.6-1.3,2.7c-0.5,1.2-0.6,2.3-0.3,3c1.3,2.5,1.9,3.7,3.6,6.2      c-0.2,0.5-0.3,0.8-0.4,1.3c0.2,0,0.3,0,0.4-0.1C35.5,62.5,37.6,61.6,38.8,61.8z M36.1,60.9c0.1,0,0.1,0,0.2,0l0.1,0.1      c-0.1,0-0.1,0.1-0.2,0.1C36.1,61,36.1,61,36.1,60.9C36,61,36.1,60.9,36.1,60.9z M34.9,50.1c0,0.1,0.1,0.1,0.1,0.2l-0.1,0.1      C34.9,50.3,34.9,50.2,34.9,50.1C34.9,50.2,34.9,50.2,34.9,50.1z M34.8,50.3c0.1,0.1,0.1,0.1,0.2,0.2c-0.1,0.1-0.2,0.1-0.3,0.2      l0,0C34.6,50.4,34.7,50.4,34.8,50.3C34.7,50.3,34.7,50.3,34.8,50.3z M33.1,48.6L33.1,48.6c0.2-0.1,0.2-0.1,0.3-0.1      c0.2,0.2,0.4,0.3,0.6,0.3c0,0.1,0,0.1,0,0.2c0.1,0,0.1-0.1,0.2-0.1l0.1,0.1c0.2,0.4,0.4,0.7,0.4,1.1c-0.3-0.1-0.5-0.8-0.8-1.3      C33.7,48.9,33.2,48.8,33.1,48.6z"></path>
			</g>
			<g>
				<path class="st0" d="M34.8,51.9c0-0.1-0.1-0.2-0.1-0.2c0,0.1-0.1,0.1-0.1,0.2c0,0.1,0.1,0.1,0.1,0.2C34.7,52,34.7,52,34.8,51.9z      "></path>
			</g>
			<g>
				<path class="st0" d="M37.7,62.7c0.3-0.1,0.6-0.2,0.9-0.3c0.1-0.2,0.1-0.3,0.2-0.5c-0.4,0.2-0.9,0.2-1.4,0.3      C37.5,62.5,37.5,62.6,37.7,62.7z"></path>
			</g>
			<g>
				<path class="st0" d="M36.3,55.1L36.3,55.1c0,0.1,0,0.2,0,0.2l0,0V55.1C36.4,55.2,36.4,55.1,36.3,55.1      C36.4,55.1,36.4,55.1,36.3,55.1z"></path>
			</g>
			<g>
				<path class="st0" d="M36.2,62.5C36.2,62.5,36.2,62.6,36.2,62.5c0.2,0.1,0.3,0.1,0.3,0.3l0,0c-0.3,0-0.4-0.2-0.8,0.1      c0.1,0.1,0.2,0.2,0,0.2c-0.3-0.1-0.6,0.2-0.9,0.3c-0.7,0.1-2.7,0.3-3.1,0c-0.8,0.5-1.6,0.6-2.5,0.5c-0.2,0.2-0.2,0.3-0.2,0.5      c0,0,0.1,0,0.2,0c0.1-0.1,0-0.1,0.2-0.1c0.4,0.5,3-0.1,3.6-0.5c0.1,0.1,0.1,0.2,0.2,0.3c-1.5,0.5-3,0.4-4.5,0.8      c0.3,0.5-0.3,0.8-0.5,1.3c-0.1,0.4-0.2,0.8-0.2,1.3c0.1,0.1,0.1,0.2,0.2,0.2c0,0.1-0.1,0.2-0.1,0.3c2,0,3.4,0,5.7,0      c1.9,0,3.7-1.4,4.2-3c0.2-0.6,0.3-1.1,0.5-1.5c-0.1,0-0.2,0-0.2,0C37.5,63.2,36.9,62.2,36.2,62.5z M30.5,64.1L30.5,64.1      C30.5,64,30.5,64,30.5,64.1c0.1-0.1,0.1-0.1,0.2-0.1v0.1C30.6,64.1,30.6,64.1,30.5,64.1z M30,67.1C30,67,30,67,30,67.1      C30.1,67.1,30.1,67.1,30,67.1L30,67.1C30.1,67.1,30,67.1,30,67.1z M30.3,67.5L30.3,67.5C30.4,67.5,30.4,67.5,30.3,67.5      C30.3,67.6,30.4,67.7,30.3,67.5z M31.8,65.6c-0.9,0.5-1.1-0.2-1.9,0.8v-0.1c0-0.2,0-0.3,0.1-0.5c0.5-0.2,1-0.1,1.4-0.3      c0.3-0.2,0.6-0.6,0.9-0.6l0,0C32.2,65.3,32,65.5,31.8,65.6z"></path>
			</g>
			<g>
				<path class="st0" d="M36.7,62.5C36.7,62.5,36.8,62.4,36.7,62.5c0.1-0.1,0.1-0.1,0.1-0.2C36.7,62.5,36.7,62.3,36.7,62.5z"></path>
			</g>
			<g>
				<path class="st0" d="M27.6,64.8L27.6,64.8c0.1,0,0.2,0,0.2,0S27.6,64.7,27.6,64.8C27.6,64.7,27.6,64.8,27.6,64.8z"></path>
			</g>
			<g>
				<path class="st0" d="M28.4,63.8L28.4,63.8c0-0.1,0-0.1,0-0.2C28.4,63.8,28.4,63.7,28.4,63.8z"></path>
			</g>
			<g>
				<path class="st0" d="M27.5,64.8c0-0.1,0-0.2,0.1-0.2c0.3-0.2,0.3-0.2,0.7-0.3c-0.1-0.1-0.1-0.2-0.2-0.3      c-0.8,0.1-1.7-0.1-2.5-0.4c-0.2,0.3-0.3,0.7-0.5,1.1c-0.8,1.6,0.1,3,1.9,3c0.1,0,0.1,0,0.2,0c0.1-0.9,0.3-1.9,0.6-2.6      C27.6,64.9,27.6,64.9,27.5,64.8z"></path>
			</g>
			<g>
				<path class="st0" d="M45.6,62.1c0.8-3.8,1.5-7.7,2.3-11.5c-0.1-0.1-0.1-0.1-0.2-0.2c0.1,0,0.1-0.1,0.2-0.1c0,0.1,0,0.2,0.1,0.2      c0.3-1.3,0.5-2.6,0.8-3.9c-0.7,0-1.2,0-1.8,0c0.1,0.3,0.1,0.4,0.2,0.8c-0.2,0.1-0.2,0.1-0.3-0.1c0.1-0.2,0.1-0.2,0.1-0.3      c-0.1,0.1-0.1,0.2-0.2,0.3c-0.1-0.2,0-0.3,0-0.5c-0.5,0-1,0-1.7,0c-1.4,5.2-2.7,10.3-4.1,15.5C42.6,62,44.3,62,45.6,62.1z       M47.7,48.4L47.7,48.4c0.2,0.7,0,1.2,0.2,1.8c-0.1,0-0.2,0.1-0.2,0.1c0-0.1-0.1-0.1-0.1-0.2C47.7,49.8,47.7,48.9,47.7,48.4      C47.6,48.4,47.7,48.4,47.7,48.4z M47.6,49.8C47.6,49.9,47.5,49.9,47.6,49.8c-0.1,0.1-0.1,0.1-0.2,0.1v-0.1      C47.4,49.8,47.5,49.8,47.6,49.8z M46.7,47.7c0.1-0.1,0.2-0.2,0.3-0.2c0,0.1,0.1,0.2,0.1,0.3C46.9,47.9,46.8,47.9,46.7,47.7      C46.6,47.8,46.6,47.8,46.7,47.7z"></path>
			</g>
			<g>
				<path class="st0" d="M40.8,62.8c-0.4,1.6-0.8,3.2-1.3,4.7c1.1,0,1.9,0,2.7,0c0,0,0,0-0.1,0c0.1,0,0.1-0.1,0.2-0.1l0,0      c0,0-0.1,0-0.1,0.1v0.1c0.7,0,1.4,0,2.2,0c0-0.3,0-0.5,0.1-0.6c0,0.1,0,0.2,0,0.3c0.1-0.3,0.2-0.8,0.3-1.1l0,0l0,0h0.1      c0.3-1.1,0.4-2.3,0.7-3.4C43.9,62.6,42.3,62.7,40.8,62.8z M43.3,66.3L43.3,66.3L43.3,66.3L43.3,66.3z M42.7,67.5      C42.7,67.4,42.7,67.4,42.7,67.5C42.7,67.4,42.7,67.5,42.7,67.5C42.7,67.5,42.7,67.5,42.7,67.5z M43.2,66.9c-0.1,0,0,0-0.2-0.1      C43.1,66.9,43.1,66.9,43.2,66.9z M43.2,67L43.2,67c0.2-0.1,0.2-0.1,0.3-0.3l0,0c0,0.2,0.1,0.3,0.1,0.4      C43.2,67.1,43.2,67.1,43.2,67z M44.2,67.6C44.1,67.6,44.1,67.5,44.2,67.6C44.1,67.5,44.2,67.5,44.2,67.6c0-0.2,0-0.2,0.1-0.3      c0,0,0.1,0,0.1,0.1C44.3,67.4,44.3,67.5,44.2,67.6C44.1,67.5,44.2,67.5,44.2,67.6z M44.5,66.3L44.5,66.3      C44.6,66.4,44.5,66.4,44.5,66.3C44.5,66.3,44.5,66.3,44.5,66.3z M44.4,66.6c0,0.1,0,0.1,0,0.2h-0.1      C44.3,66.7,44.3,66.7,44.4,66.6z M44.2,67.2C44.2,67.2,44.1,67.1,44.2,67.2c0-0.1,0.1-0.2,0.1-0.2L44.2,67.2L44.2,67.2z"></path>
			</g>
			<g>
				<path class="st0" d="M47.3,65.5c0,0.3-0.1,0.5-0.1,0.7c0.4-0.2,0.8-0.4,1.2-0.5C48.1,65.7,47.7,65.6,47.3,65.5z"></path>
			</g>
			<g>
				<path class="st0" d="M54.7,46.6c-0.5,0-1,0-1.4,0c0.7,0.8,1.4,1.8,1.9,2.6C55,48.3,54.9,47.5,54.7,46.6z"></path>
			</g>
			<g>
				<path class="st0" d="M57.9,66.7c-0.3-0.2-0.2-0.3-0.4-0.4c-0.2,0.1-0.3,0.2-0.5,0.3l0,0c0.2-0.1,0.3-0.2,0.6-0.3      c-0.1-0.3-0.2-0.5-0.1-0.8c0.3-0.2,0.8-0.3,1.1-0.6c0.2-0.6,0.3-1.2,0.4-1.8c-0.8-1.5-3-3.8-3.9-4.1c-0.4-0.2-0.9,0-1.4,0.3      c0.6,2.7,1.3,5.6,2,8.5c0.8,0,1.3,0,2.2,0c0.3-0.9,0.4-1.9,0.7-2.8c-0.3,0.3-0.7,0.4-1.1,0.7C57.7,65.9,57.7,66.2,57.9,66.7z       M56.3,67.3L56.3,67.3c-0.1-0.1-0.2-0.2-0.2-0.2l0,0c0.1,0,0.3,0,0.3,0C56.4,67.1,56.4,67.2,56.3,67.3z M56.8,66.7      c-0.1,0.1-0.3,0.2-0.3,0.3l0,0c0.2-0.2,0.3-0.3,0.5-0.4C56.8,66.6,56.8,66.7,56.8,66.7z"></path>
			</g>
			<g>
				<path class="st0" d="M55.7,51.5c-0.1-0.3-0.1-0.4-0.2-0.6c0,0.2,0,0.3-0.1,0.4C55.6,51.5,55.6,51.5,55.7,51.5z"></path>
			</g>
			<g>
				<path class="st0" d="M48.4,65.8c-0.3,0.2-0.7,0.3-1.2,0.5c-0.1,0.4-0.2,0.8-0.2,1.3c0.6,0,1.1,0,1.6,0      C48.8,67.1,48.8,66.5,48.4,65.8z M47.5,67.6c0-0.1,0.1-0.1,0.1-0.2C47.6,67.5,47.6,67.5,47.5,67.6L47.5,67.6z M47.9,67.3      C47.9,67.2,47.9,67.2,47.9,67.3c0.1,0,0.1,0.1,0.2,0.1C47.9,67.3,48,67.4,47.9,67.3z"></path>
			</g>
			<g>
				<path class="st0" d="M64,61.8c0.1-0.1,0.2-0.2,0.3-0.3c-0.2-0.2-0.3-0.1-0.4-0.1c-0.1,0.1-0.2,0.3-0.3,0.3c0,0,0-0.1-0.1-0.1      c-0.7-0.3-1.3-1.8-1.6-2.5c-0.3-0.7-1.2-1-1.4-1.7c0.1,0,0.1-0.1,0.2-0.1c0.5,0.5,1.4,1,1.9,1.9c0.3,0.6,0.7,1.5,1.4,2      c0.6,0,1.1-0.1,1.7-0.1c-0.4-2.3-0.8-4.6-1.2-6.7c-0.1,0-0.1,0-0.2,0.1c0,0,0-0.1-0.1-0.1c0.1,0,0.1-0.1,0.2-0.1h0.1      c-0.4-2.6-0.9-5.2-1.4-7.6c-1.7,0-2.6,0-4.3,0c-0.4,2.1-0.8,4.3-1.4,6.6c0.3,0.3,0.4,0.6,0.5,0.9h-0.1c-0.2-0.2-0.3-0.4-0.4-0.6      c-0.2,0.8-0.3,1.6-0.5,2.4c0.5-0.8,1.1-1.3,1.5-1.3l0,0c-1.5,1.4-2.1,2.2-2.7,3.9c0.3,0.3,0.8,0.6,1.1,0.8      c0.3,0.4,0.7,0.9,1,1.4c0.6,0.6,1.1,1.1,1.4,1.6c0.3-1.7,0.8-3.4,1.1-5c0.3,3.3,0.5,6.7,0.8,10.3c2.3,0,3.4,0,5.7,0      c-0.3-1.5-0.5-3.1-0.8-4.6C65.2,62.7,64.4,62.2,64,61.8z M61,64.7L61,64.7c0.1-0.1,0.1,0,0.2,0C61.1,64.7,61.1,64.7,61,64.7z       M63.3,61.8c-0.1-0.1-0.2-0.2-0.3-0.3c0,0,0.1,0,0.1-0.1c0,0,0.1,0,0.1,0.1C63.3,61.6,63.3,61.7,63.3,61.8L63.3,61.8z"></path>
			</g>
			<g>
				<path class="st0" d="M49.5,60.8C49.4,61,49.4,61,49.3,61c0-0.1,0-0.1,0-0.2c-0.3,0.2-0.5,0.3-0.8,0.4c-0.1,0.1-0.1,0.3-0.3,0.4      H48c-0.1,0.4-0.2,0.8-0.2,1.2c0,0.2,0.1,0.3,0.1,0.6l0,0l-0.1-0.1c0,0.1,0,0.1,0,0.2c0,0,0,0.1,0.1,0.1c0,0-0.1,0-0.1,0.1      c0,0.2-0.1,0.3-0.1,0.6l0,0l0,0c0,0.1,0,0.3-0.1,0.3c0,0,0.1,0.1,0.2,0.1c0,0.2-0.1,0.3-0.1,0.4l0,0c0.4,0.1,0.8,0.2,1.3,0.3      c0.1,0.1,0.4,2,0.4,2.1c0,0,0,0,0,0.1c1.1,0,2,0,3.5,0c0-0.6,0.1-1.2,0.1-1.9c-0.1,0-0.2,0-0.3,0c0.1,0,0.1,0,0.2,0H53      c0.2-2.2,0.3-4.3,0.4-6.4c-0.4,0.3-0.8,0.7-1.2,1C51.5,60.4,49.9,61,49.5,60.8z M47.8,63.8L47.8,63.8v-0.2      C47.8,63.7,47.9,63.7,47.8,63.8C47.9,63.7,47.8,63.8,47.8,63.8z M49.8,61C49.8,61,49.8,61,49.8,61c0.1,0,0.1,0.1,0.1,0.2      C49.9,61.1,49.8,61,49.8,61z M50.5,66L50.5,66c0.1-0.1,0.1-0.1,0.2-0.1c0.2,0,0.2-0.1,0.3,0C50.9,66,50.7,66,50.5,66z       M51.8,65.9C51.8,65.8,51.8,65.9,51.8,65.9L51.8,65.9L51.8,65.9z M51.6,60.7L51.6,60.7c-0.2,0.1-0.3,0.2-0.5,0.3      c0,0,0-0.1-0.1-0.1l0.1-0.1C51.2,60.8,51.4,60.8,51.6,60.7c0-0.1,0.1-0.1,0.1-0.2c0.2,0,0.1,0,0.3,0      C51.7,60.6,51.6,60.7,51.6,60.7z M52.5,60.4L52.5,60.4C52.5,60.3,52.4,60.3,52.5,60.4z"></path>
			</g>
			<g>
				<path class="st0" d="M52,60.4c0-0.2,0.6-0.7,1.3-1.1c0-0.6,0.1-1.3,0.1-1.9c0.1,0.5,0.3,1,0.3,1.5c0.4-0.3,0.8-0.5,0.8-0.5      c0.3,0.1,0.5,0.1,0.8,0.2c0.2-0.3,0.8-1.6,1.4-2.5c-0.3-1.4-0.7-2.6-0.9-4c-0.3-0.3-0.5-0.5-0.7-0.8c0.2-0.3,0.3-0.8,0.3-1.1      v-0.1c-0.1-0.4-1.1-1.6-1.4-1.9c-0.4-0.4-0.8-1-1.2-1.6c-0.8,0-1.5,0-2.5,0c-0.7,4.5-1.5,9.3-2.3,14.5c0.5-0.2,1-0.5,1.6-0.7      C50.5,60.3,51.2,60.4,52,60.4z"></path>
			</g>
			<g>
				<path class="st0" d="M64.6,61.6c0.1,0.1,0.1,0.3,0.2,0.3c0.1,0,0.6,0.3,1.1,0.7c-0.1-0.3-0.2-0.8-0.2-1.1      C65.3,61.6,64.9,61.6,64.6,61.6z"></path>
			</g>
			<g>
				<path class="st0" d="M67.7,48.5c0.9,1.2,3.9,0.8,5.2,0.7c0.1-0.3,0.3-0.5,0.2-0.8c0.1,0,0.1-0.1,0.2-0.1c0,0.2-0.1,0.3-0.1,0.5      c0,0.1,0,0.2,0,0.3c0.2,0.2,0.4,0.2,0.8,0.3c0-0.1,0-0.1-0.1-0.2c-0.7-1.4-2.1-2.5-3.1-2.5c-1.3,0-2,0-3.1,0      c0.1,0.4,0.3,0.8,0.4,1.2C67.8,48.1,67.8,48.2,67.7,48.5z"></path>
			</g>
			<g>
				<path class="st0" d="M73.2,49.5c-0.3,0.1-0.8,0.2-1.1,0.3c-1.4,0.2-2.8-0.2-4.1-0.6c-0.6,0.9-0.9,2.5-0.7,3.6      c-0.1,0.1-0.2,0.2-0.3,0.3l0,0c0.1,0.1,0.3,0.1,0.3,0.2c-0.1,0.4-0.1,0.6,0.3,0.9l-0.1,0.1c-0.3-0.3-0.8-0.3-1.1-0.7      c0.1-0.8,0.7-1.4,0.6-2.2c-0.1-0.6-0.2-1.3-0.1-1.9c0.2-0.3,0.3-0.4,0.4-0.7c0.1-0.3-0.2-0.6-0.2-0.9c0-0.2,0.3-0.4,0.3-0.6      c0-0.3-0.1-0.4-0.2-0.7c-0.2,0-0.3,0-0.5,0c-1.1,0-1.8,1.1-1.4,2.5c0,0.2,0.1,0.3,0.1,0.6l0,0c0,0,0,0,0,0.1      c0.8,3.5,1.6,7.3,2.5,11.3c0.3-0.2,0.7-0.3,1-0.3c0.4-0.1,0.8,0.1,1.4,0c0.1,0.2,0.1,0.2,0.1,0.3c-0.3,0-0.3,0-0.5,0.2      c0.1,0.1,0.1,0.3,0.2,0.3l0,0c-0.2-0.2-0.3-0.3-0.4-0.5c-0.1,0.1-0.3,0.2-0.3,0.3c0.1,0.2,0.2,0.3,0.3,0.4      c-0.1,0-0.1,0.1-0.2,0.1c-0.2,0-0.2-0.1-0.3-0.2c0.2-0.3,0.1-0.2,0.1-0.4c-0.1,0-0.1,0-0.2,0c-0.3-0.1-0.7-0.1-1,0      c0.1,0.3,0.2,0.8,0.3,1.1c0,0,0,0,0.1,0c0,0,0,0-0.1,0.1c0.1,0.6,0.3,1.1,0.3,1.7c0,0.1,0,0.2,0.1,0.2c0,0,0-0.1,0.1-0.1      c0.1,0.1,0.2,0.1,0.3,0.2c-0.1,0.1-0.2,0.3-0.3,0.3c0.6,1.6,2.3,3,3.9,3c1.9,0,3.1,0,4.7,0c-0.1-0.2-0.1-0.3-0.1-0.4l0,0      C77.1,67,77,66.7,77,66.6c-0.2-1.4,0.1-3,0.2-4.3c0,0,0-0.1-0.1-0.1c-0.3-0.1-0.6-0.1-0.9-0.2c0-0.1,0-0.1,0-0.2      c0.4,0,0.8,0.2,1.2,0.3c0,0.1,0.1,0.2,0.1,0.3c-0.1,0.5-0.3,1-0.3,1.5c0.1,1.1,0,2.3,0.1,3.4c0,0.2,0.1,0.3,0.1,0.4      c0.6,0,1.2,0,1.9,0c1.8,0,2.5-1.6,1.6-3.6c-0.5-1.1-1-2.1-1.4-3.1c-0.3-0.3-0.6-0.5-0.9-0.8c0.1-0.2,0.2-0.4,0.2-0.7      c-0.3-0.5-0.5-1-0.8-1.5c-0.3,0-0.6,0-0.8-0.2c-1.2-0.4-2.5-0.9-3.6-1.3c0.7,1.9,1.4,3.9,2.2,5.9c-0.9,0-1.5,0-2.3,0      c0,0.1,0.1,0.1,0.1,0.2l0,0l0,0c0,0-0.1,0-0.1-0.1c0-0.1,0-0.1-0.1-0.2l0,0c-0.2,0-0.3,0-0.4,0c0,0.2,0.1,0.3,0.1,0.5      c-0.8,0-1.7,0.1-2.5,0.2c0-0.3,0-0.4-0.3-0.6c0.1-0.2,0.2-0.3,0.2-0.4l0,0c0.2,0.3,0.2,0.4,0.4,0.7c0.6,0.1,1.4-0.1,2.1-0.3      h-0.1c-0.3-1-0.6-2-0.9-3c-0.1-0.2-0.2-0.4-0.2-0.6l0,0c-0.8-2.8-1.6-5.6-2.5-8.2c0.9,0,1.4,0,2.2,0c0.7,1.9,1.4,3.8,2.2,5.8      c0.2,0,0.3,0.1,0.4,0.1c0.8,0.2,1.9,0.1,2.6,0.4c0.4,0.2,0.8,0.3,1.3,0.5c-1.3-2.7-2.5-5.3-3.6-7.7      C73.8,49.6,73.4,49.5,73.2,49.5z M65.6,49.9c0-0.1,0-0.1,0-0.2h0.1C65.7,49.9,65.8,49.8,65.6,49.9z M66.4,49.7L66.4,49.7      L66.4,49.7c0-0.1,0-0.1,0.1-0.2C66.4,49.6,66.4,49.6,66.4,49.7z M69.2,62.4c0-0.2,0-0.1,0-0.2C69.2,62.2,69.2,62.3,69.2,62.4      C69.2,62.3,69.2,62.3,69.2,62.4z M69.5,63.6C69.6,63.6,69.6,63.6,69.5,63.6c0.1-0.3,0.1-0.3,0.2-0.4c0.1,0,0.1,0,0.2-0.1      c0,0,0.1,0.1,0.2,0.1C70,63.4,69.8,63.6,69.5,63.6z M78.6,62.1L78.6,62.1c0.2,0,0.3,0,0.4-0.1v0.1c-0.1,0.1-0.2,0.1-0.3,0.2      C78.7,62.2,78.7,62.1,78.6,62.1c0,0.1-0.1,0.1-0.2,0.1l0,0C78.4,62.1,78.5,62.1,78.6,62.1z M77.9,62.1c0.2,0,0.3,0,0.4,0      c0,0.3,0.1,0.1-0.1,0.2c-0.2,0-0.3-0.1-0.5-0.1C77.7,62.1,77.8,62.1,77.9,62.1z M75.5,64c0,0.1,0,0.1,0,0.2      C75.5,64.1,75.5,64.2,75.5,64z M72.6,63.9L72.6,63.9L72.6,63.9c-0.1-0.1-0.1-0.2-0.1-0.3C72.5,63.8,72.6,63.8,72.6,63.9z       M69.3,55.5c0.1,0,0.2,0,0.3,0c0.3,0,0.5-0.1,0.8-0.1c0,0.1,0,0.1,0,0.2c-0.1,0-0.2,0.1-0.3,0.1C69.9,55.8,69.5,55.6,69.3,55.5      L69.3,55.5z M67.7,54.3C67.7,54.2,67.8,54.2,67.7,54.3c0.1,0,0.1,0,0.2,0C67.7,54.3,67.8,54.3,67.7,54.3z M68.1,55.6      C68,55.6,68,55.6,68.1,55.6c-0.1-0.3-0.2-0.3,0-0.6c0,0,0.1,0,0.1,0.1c0,0.2,0.1,0.3,0.1,0.4C68.2,55.5,68.1,55.5,68.1,55.6z       M68.7,55.6C68.7,55.6,68.7,55.5,68.7,55.6c0-0.1,0-0.2,0-0.3c0.1,0,0.1,0.1,0.2,0.1C68.8,55.5,68.8,55.5,68.7,55.6z M73.7,49.9      L73.7,49.9c0.1,0,0.1,0.1,0.2,0.1C73.8,49.9,73.7,49.9,73.7,49.9z"></path>
			</g>
			<g>
				<path class="st0" d="M67,53.8c0.3-0.2,0.3-0.2,0.2-0.3c-0.1-0.1-0.1-0.1-0.2-0.1c-0.1,0-0.1,0.1-0.2,0.1c0,0.1,0,0.2,0,0.3      C66.8,53.8,66.9,53.8,67,53.8z"></path>
			</g>
			<g>
				<path class="st0" d="M85.5,61.6c-0.8-1.4-0.1-2.6-1.9-4.2c-0.2,0-0.4,0.1-0.6,0.1c-0.3-0.3-0.3-0.6-0.2-0.9      c-2.6-1.4-1.9-3.8-0.9-6.2c-0.3-0.3-0.6-0.8-0.9-1.1c-0.3-0.1-0.5-0.1-0.8-0.3c0,0,0-0.1,0.1-0.1l0,0c0.2,0.2,0.3,0.3,0.5,0.3      c-0.7-0.8-1.3-1.7-1.9-2.5c-0.3,0-0.7,0-0.9,0l0,0c-0.1,0-0.2,0-0.3,0c-1,0-1.8,0-3.1,0c0.4,0.9,0.8,1.9,1.3,2.8      c0.3-0.3,0.3-0.5,0.6-0.8c0,0.4-0.3,0.8-0.5,1.1c2,4.3,4,8.6,5.8,12.7c0.3,0.2,0.6,0.3,0.8,0.4c-0.1,0.1-0.2,0.1-0.3,0.2      c-0.1,0-0.3,0-0.3,0c0.8,1.6,1.4,3.1,2.1,4.7c2,0,3.1,0,5.2,0c-1-2-2.1-4.2-3.2-6.2C86,61.5,85.7,61.6,85.5,61.6z M76.4,48.5      C76.4,48.5,76.4,48.4,76.4,48.5c0.3-0.5,0.6-1.4,0.9-1.6l0.1,0.1C77,47.6,76.9,48.1,76.4,48.5C76.5,48.5,76.5,48.5,76.4,48.5z       M77.3,50.4c0-0.1-0.1-0.1-0.1-0.2c0-0.1,0.1-0.3,0.1-0.3c0.3,0.3,0.4,0.3,0.7,0.4C77.8,50.4,77.6,50.4,77.3,50.4z M79.1,47.8      C79.1,47.7,79.1,47.7,79.1,47.8c0.1-0.1,0.2,0,0.2,0C79.2,47.9,79.2,47.9,79.1,47.8z M79.5,48c0,0-0.1-0.1-0.2-0.1      c0.1,0,0.1,0,0.2-0.1C79.5,47.8,79.5,47.9,79.5,48z"></path>
			</g>
			<g>
				<path class="st0" d="M82.6,48.8c0.3-0.8,0.6-1.5,0.7-2.1v-0.1c-0.6,0-1.1,0-1.9,0C81.7,47.4,82.2,48.2,82.6,48.8z"></path>
			</g>
			<g>
				<path class="st0" d="M92.7,59.5c-0.4,0-1.1,0.1-1.5,0.2c-0.4,0.1-0.8,0.5-1.2,0.5c0.7-0.7,2-0.8,2.5-1.4      c0.2,0.1,0.3,0.2,0.4,0.3c0.1,0,0.1-0.1,0.2-0.1c-2.5-4.1-4.9-8.1-7.5-12.4c-0.8,0-1.4,0-1.9,0c-0.1,0.9-0.3,1.8-0.6,2.7l0,0      c1.3,2.4,2.5,4.7,3.8,7c-1.5-1.8-3-3.6-4.5-5.4c-0.3,0.7-0.4,1.4-0.4,2c0.1,1.4,2.2,3.6,3,5.1c0.8,0.9,1.5,1.8,2.3,2.6      c0,0,0.1,0,0.1-0.1c0.4-0.2,1-0.1,1.5-0.2l0,0c-0.3,0.3-0.2,0.4-0.3,0.7c-0.3,0-0.6,0.1-0.8,0.1c1.9,2.2,3.8,4.3,5.8,6.4      c1.9,0,2.9,0,4.7,0c-1.6-2.7-3.3-5.5-5-8.4C92.8,59.3,92.8,59.4,92.7,59.5z M89.5,60.4c-0.3,0-0.6,0.2-0.8,0.1l0,0      c0.2-0.2,0.4-0.3,0.6-0.4c0.2,0,0.3,0,0.4,0c0,0.1,0.1,0.1,0.1,0.2C89.7,60.4,89.6,60.4,89.5,60.4z M90,60.8L90,60.8      c0-0.1,0-0.2,0.1-0.2C90,60.6,90,60.7,90,60.8z"></path>
			</g>
		</g>
	</g>
	<g>
		<path class="st0" d="M28.9,100.3c-0.5,0.5-1.3,0.6-1.8,0.1l-1.7-1.5c-0.5-0.5-0.6-1.3-0.1-1.8l1.1-1.2l1.5,1.3l-0.6,0.7l0.7,0.6    l4.7-5.4l1.5,1.3L28.9,100.3z"></path>
		<path class="st0" d="M35.4,104.7c-0.4,0.6-1.2,0.8-1.8,0.4l-2.2-1.4c-0.6-0.4-0.8-1.2-0.4-1.8l4.2-6.6l1.7,1.1l-3.9,6.1l1.1,0.7    l3.9-6.1l1.7,1.1L35.4,104.7z"></path>
		<path class="st0" d="M42.7,105.3c0.2,0.4,0.2,0.9-0.1,1.4l-0.6,1.2c-0.3,0.7-1.1,1-1.7,0.7l-2.4-1.1c-0.7-0.3-1-1.1-0.7-1.7    l0.7-1.5l1.8,0.8l-0.4,0.9l1.2,0.5l0.3-0.6l-1.4-3.6c-0.2-0.4-0.2-0.9,0.1-1.4l0.5-1.1c0.3-0.7,1.1-1,1.7-0.7l2.4,1.1    c0.7,0.3,1,1.1,0.7,1.7l-0.7,1.5l-1.8-0.8l0.4-0.9l-1.2-0.5l-0.2,0.5L42.7,105.3z"></path>
		<path class="st0" d="M50.5,104.3l-1.6-0.5l-2,6.9l-1.9-0.5l2-6.9l-1.6-0.5L46,101l5,1.5L50.5,104.3z"></path>
		<path class="st0" d="M52.5,112l-1.9-0.3l1.6-9l1.9,0.3L52.5,112z"></path>
		<path class="st0" d="M60.1,111.3c0,0.7-0.7,1.3-1.4,1.2l-2.6-0.2c-0.7,0-1.3-0.7-1.2-1.4l0.4-6.5c0-0.7,0.7-1.3,1.4-1.2l2.6,0.2    c0.7,0,1.3,0.7,1.2,1.4l-0.1,1.6l-2-0.1l0.1-1l-1.3-0.1l-0.3,5.2l1.3,0.1l0.1-1l2,0.1L60.1,111.3z"></path>
		<path class="st0" d="M66.9,112.2l-4.6,0.3l-0.7-9.1l4.6-0.3l0.1,2l-2.6,0.2l0.1,1.5l2-0.1l0.1,1.9l-2,0.1l0.1,1.7l2.6-0.2    L66.9,112.2z"></path>
		<path class="st0" d="M75,103.1l-1.6,0.4l1.9,6.9l-1.9,0.5l-1.9-6.9l-1.6,0.4l-0.5-1.9l5-1.4L75,103.1z"></path>
		<path class="st0" d="M83,107.6l-4.2,1.8l-3.6-8.4l4.2-1.8l0.8,1.8l-2.4,1l0.6,1.4l1.8-0.8l0.8,1.8l-1.8,0.8l0.7,1.6l2.4-1    L83,107.6z"></path>
		<path class="st0" d="M89.7,103.7l-1.8,1l-0.7-0.7l-1.5,0.9l0.3,0.9l-1.8,1l-3-8.9l2-1.2L89.7,103.7z M86.1,102.7l-2-2.4l1.1,3    L86.1,102.7z"></path>
		<path class="st0" d="M96.7,98.1l-1.5,1.3l-2.7-3.2l1.9,3.9l-0.6,0.5L90.3,98l2.7,3.2l-1.5,1.3l-5.9-7l1.8-1.5l3.7,2.7l-2-4.1    l1.8-1.5L96.7,98.1z"></path>
	</g>
	<g>
		<polygon class="st0" points="60.5,9.2 61,10.8 62.8,10.8 61.4,11.9 61.9,13.5 60.5,12.5 59.1,13.5 59.6,11.9 58.2,10.8 60,10.8       "></polygon>
	</g>
	<g>
		<polygon class="st0" points="50.5,10.2 51.3,11.7 53.1,11.3 51.9,12.6 52.7,14.1 51.1,13.4 50,14.7 50.2,13 48.6,12.2 50.3,11.9       "></polygon>
	</g>
	<g>
		<polygon class="st0" points="40.9,13.1 42,14.4 43.6,13.7 42.7,15.2 43.8,16.5 42.1,16.1 41.2,17.6 41.1,15.9 39.4,15.5 41,14.8       "></polygon>
	</g>
	<g>
		<polygon class="st0" points="32,17.8 33.4,18.9 34.8,17.9 34.2,19.6 35.6,20.6 33.9,20.6 33.3,22.2 32.8,20.5 31,20.5 32.5,19.5       "></polygon>
	</g>
	<g>
		<polygon class="st0" points="24.2,24.2 25.8,25 27,23.7 26.8,25.5 28.3,26.3 26.6,26.5 26.3,28.2 25.5,26.7 23.8,27 25,25.7   "></polygon>
	</g>
	<g>
		<polygon class="st0" points="17.9,31.9 19.5,32.4 20.5,31 20.6,32.7 22.2,33.2 20.6,33.8 20.7,35.5 19.6,34.2 18,34.8 18.9,33.3       "></polygon>
	</g>
	<g>
		<polygon class="st0" points="13.1,40.8 14.9,40.9 15.5,39.3 15.9,41 17.7,41.2 16.2,42.1 16.6,43.8 15.3,42.6 13.8,43.5     14.4,41.9   "></polygon>
	</g>
	<g>
		<polygon class="st0" points="10.2,50.4 11.9,50.2 12.3,48.5 13,50.1 14.7,49.9 13.4,51.1 14.2,52.6 12.7,51.8 11.4,53 11.7,51.3       "></polygon>
	</g>
	<g>
		<polygon class="st0" points="9.2,60.4 10.9,59.9 10.9,58.1 11.9,59.6 13.5,59 12.5,60.4 13.5,61.8 11.9,61.3 10.9,62.7 10.9,61       "></polygon>
	</g>
	<g>
		<polygon class="st0" points="10.2,70.4 11.7,69.6 11.4,67.9 12.6,69.1 14.2,68.2 13.4,69.8 14.7,71 13,70.8 12.3,72.3 11.9,70.6       "></polygon>
	</g>
	<g>
		<polygon class="st0" points="13.1,80 14.4,78.9 13.8,77.3 15.2,78.2 16.6,77.1 16.2,78.8 17.6,79.7 15.9,79.8 15.5,81.5     14.8,79.9   "></polygon>
	</g>
	<g>
		<polygon class="st0" points="17.8,88.9 18.9,87.5 17.9,86.1 19.6,86.7 20.7,85.3 20.6,87.1 22.2,87.7 20.5,88.1 20.5,89.9     19.5,88.4   "></polygon>
	</g>
	<g>
		<polygon class="st0" points="103.1,88.9 101.4,88.5 100.4,89.9 100.4,88.2 98.7,87.7 100.3,87.1 100.3,85.4 101.3,86.7 103,86.1     102,87.6   "></polygon>
	</g>
	<g>
		<polygon class="st0" points="107.8,80.1 106.1,80 105.4,81.6 105,79.9 103.3,79.7 104.8,78.8 104.4,77.1 105.7,78.3 107.2,77.4     106.5,79   "></polygon>
	</g>
	<g>
		<polygon class="st0" points="110.7,70.5 109,70.7 108.7,72.4 108,70.8 106.2,71 107.5,69.8 106.8,68.3 108.3,69.1 109.6,67.9     109.2,69.6   "></polygon>
	</g>
	<g>
		<polygon class="st0" points="111.7,60.5 110.1,61 110.1,62.7 109.1,61.3 107.4,61.9 108.4,60.5 107.4,59.1 109.1,59.6 110.1,58.2     110.1,59.9   "></polygon>
	</g>
	<g>
		<polygon class="st0" points="110.8,50.5 109.2,51.3 109.6,53 108.3,51.8 106.8,52.7 107.5,51.1 106.2,49.9 108,50.1 108.7,48.6     109,50.3   "></polygon>
	</g>
	<g>
		<polygon class="st0" points="107.8,40.9 106.5,42 107.2,43.6 105.7,42.7 104.4,43.8 104.8,42.1 103.3,41.2 105,41.1 105.4,39.4     106.1,41   "></polygon>
	</g>
	<g>
		<polygon class="st0" points="103.1,32 102,33.4 103,34.8 101.4,34.2 100.3,35.6 100.4,33.8 98.7,33.2 100.4,32.8 100.5,31     101.4,32.5   "></polygon>
	</g>
	<g>
		<polygon class="st0" points="96.7,24.2 95.9,25.8 97.2,27 95.5,26.7 94.7,28.3 94.4,26.6 92.7,26.3 94.2,25.5 94,23.8 95.2,25       "></polygon>
	</g>
	<g>
		<polygon class="st0" points="89,17.8 88.5,19.5 89.9,20.5 88.2,20.5 87.7,22.2 87.1,20.6 85.4,20.7 86.8,19.6 86.2,18 87.6,18.9       "></polygon>
	</g>
	<g>
		<polygon class="st0" points="80.1,13.1 80,14.8 81.6,15.5 79.9,15.9 79.8,17.6 78.8,16.2 77.2,16.6 78.3,15.2 77.4,13.8 79,14.4       "></polygon>
	</g>
	<g>
		<polygon class="st0" points="70.5,10.2 70.7,11.9 72.4,12.2 70.8,13 71,14.7 69.9,13.4 68.3,14.1 69.1,12.6 67.9,11.4 69.7,11.7       "></polygon>
	</g>
	<g>
		<path class="st0" d="M96.2,88.2c0.9,1,0.8,2.5-0.2,3.4c-1,0.9-2.6,0.8-3.4-0.2c-0.9-1-0.8-2.5,0.3-3.4    C93.8,87.2,95.3,87.2,96.2,88.2z M93,91c0.7,0.7,1.7,0.9,2.5,0.2c0.7-0.7,0.8-1.7,0.1-2.5c-0.7-0.7-1.7-0.9-2.5-0.2    C92.4,89.2,92.4,90.3,93,91z M94.9,90.9l-0.5,0.5l-1.5-1.7c0.1-0.1,0.3-0.4,0.7-0.7c0.4-0.3,0.6-0.4,0.8-0.5c0.2,0,0.4,0,0.5,0.2    c0.1,0.2,0.1,0.4-0.1,0.7l0,0c0.2-0.1,0.5-0.1,0.7,0.1c0.3,0.2,0.4,0.3,0.5,0.3l-0.6,0.5c-0.1,0-0.3-0.1-0.4-0.3    c-0.2-0.1-0.3-0.1-0.5,0l-0.2,0.1L94.9,90.9z M94,89.9l0.1-0.1c0.2-0.2,0.2-0.3,0.1-0.5c-0.1-0.1-0.3-0.1-0.5,0    c-0.1,0.1-0.1,0.1-0.2,0.2L94,89.9z"></path>
	</g>
</g>
</svg>
